<svg width="160" height="50" viewBox="0 0 160 50" fill="none" xmlns="http://www.w3.org/2000/svg">
  <!-- Icône éducative modifiée -->
  <g clip-path="url(#clip0)">
    <path d="M5 40L20 10C21 8 23 7 25 7C28 7 30 9 29 12L25 28L26 29L30 22C31 20 33 19 35 19C38 19 40 21 40 24L39 38V39C40 38 41 37 43 37C45 37 47 39 47 41C47 43 45 45 43 45C41 45 39 43 39 41C39 40 39 40 39 39V39C39 38 39 37 39 36L40 30L39 29L33 39C32 41 30 42 28 42C25 42 23 40 24 37L27 24L26 24L15 40C14 42 12 43 10 43C7 43 5 41 5 40Z" fill="#635BFF"/>
  </g>
  <text x="55" y="32" font-family="Arial, sans-serif" font-size="24" font-weight="bold" fill="#635BFF">EduPlat</text>
  <defs>
    <clipPath id="clip0">
      <rect width="50" height="40" fill="white"/>
    </clipPath>
  </defs>
</svg>
